#!OML:ASF H:\BabyWalks\Project 1\Capture day 1\Session 1\baby.ASF
:FULLY-SPECIFIED
:DEGREES
458
root -10.8315 17.4905 -9.41163 -145.296 82.0244 -149.215
lowerback 17.0643 2.32469 2.8307
upperback 5.14529 3.80277 -0.552399
thorax -3.82371 2.0073 -2.94461
lowerneck 4.08453 15.054 13.561
upperneck -10.1679 20.0462 -18.0987
head -0.369314 10.4246 -7.32513
rclavicle -3.38928e-014 2.46493e-014
rhumerus -43.0091 3.42338 -85.4333
rradius 51.6509
rwrist 0.583699
rhand -7.47616 -14.8653
rfingers 7.12502
rthumb 18.4128 -44.0138
lclavicle -3.38928e-014 2.46493e-014
lhumerus -37.2892 -7.8544 76.3841
lradius 49.8274
lwrist 3.46393
lhand -1.3228 13.5177
lfingers 7.12502
lthumb 24.3228 41.9945
rfemur 8.9997 19.0986 23.1085
rtibia 12.2784
rfoot -20.3132 2.36086
rtoes -10.0161
lfemur -29.05 -3.56532 -7.05239
ltibia 38.9986
lfoot -16.4703 -12.0619
ltoes -5.53048
459
root -10.87 17.4871 -9.36039 -147.472 81.7835 -151.019
lowerback 17.0808 2.36395 3.11079
upperback 5.17479 3.90663 -0.530382
thorax -3.77653 2.06195 -3.09856
lowerneck 4.12282 15.3315 13.7541
upperneck -9.38834 20.4914 -18.1423
head -0.0569562 10.6255 -7.27788
rclavicle -5.86415e-015 -1.98785e-015
rhumerus -42.9793 3.31895 -85.3267
rradius 51.5321
rwrist 0.772002
rhand -7.49833 -14.8098
rfingers 7.12502
rthumb 18.3915 -43.9604
lclavicle -5.86415e-015 -1.98785e-015
lhumerus -37.094 -8.15876 76.4815
lradius 50.0794
lwrist 3.58696
lhand -1.38227 13.5557
lfingers 7.12502
lthumb 24.2658 42.04
rfemur 9.21689 18.9052 23.3315
rtibia 12.5529
rfoot -20.4755 2.1252
rtoes -9.95792
lfemur -28.7449 -3.79149 -7.02985
ltibia 38.6707
lfoot -16.1573 -12.24
ltoes -5.64069
460
root -10.91 17.4834 -9.30751 -149.514 81.4978 -152.684
lowerback 17.1012 2.40036 3.39861
upperback 5.20447 4.00893 -0.498563
thorax -3.7305 2.11606 -3.24626
lowerneck 4.15874 15.5577 13.9439
upperneck -8.61354 20.871 -18.1263
head 0.237448 10.7918 -7.21903
rclavicle -4.31363e-014 -1.39149e-014
rhumerus -42.9473 3.23009 -85.2135
rradius 51.4257
rwrist 0.964452
rhand -7.50415 -14.7669
rfingers 7.12502
rthumb 18.3859 -43.918
lclavicle -4.31363e-014 -1.39149e-014
lhumerus -36.9 -8.46356 76.5926
lradius 50.3797
lwrist 3.73434
lhand -1.47564 13.5834
lfingers 7.12502
lthumb 24.1762 42.0797
rfemur 9.4361 18.6904 23.5835
rtibia 12.8216
rfoot -20.6231 1.87346
rtoes -9.90552
lfemur -28.4482 -4.03549 -6.98316
ltibia 38.3341
lfoot -15.8322 -12.4242
ltoes -5.74441
461
root -10.9517 17.4797 -9.25313 -151.434 81.173 -154.223
lowerback 17.1213 2.4226 3.67055
upperback 5.23977 4.09143 -0.446671
thorax -3.68172 2.16085 -3.3597
lowerneck 4.18541 15.7502 14.0963
upperneck -7.85971 21.2037 -18.0606
head 0.510535 10.9348 -7.14639
rclavicle 4.40805e-014 7.15625e-015
rhumerus -42.8944 3.21684 -85.0958
rradius 51.3303
rwrist 1.16181
rhand -7.50496 -14.7359
rfingers 7.12502
rthumb 18.3851 -43.8871
lclavicle 4.40805e-014 7.15625e-015
lhumerus -36.7136 -8.71039 76.7177
lradius 50.7279
lwrist 3.89757
lhand -1.5961 13.599
lfingers 7.12502
lthumb 24.0607 42.1106
rfemur 9.65132 18.463 23.8567
rtibia 13.0853
rfoot -20.7548 1.60375
rtoes -9.84359
lfemur -28.162 -4.29521 -6.91966
ltibia 37.9844
lfoot -15.4922 -12.6127
ltoes -5.84806
462
root -10.995 17.476 -9.19723 -153.215 80.8073 -155.625
lowerback 17.1408 2.435 3.93911
upperback 5.27921 4.1615 -0.381461
thorax -3.62988 2.19997 -3.45449
lowerneck 4.21041 15.9024 14.2329
upperneck -7.1373 21.4805 -17.9613
head 0.760713 11.0505 -7.0698
rclavicle -4.00054e-014 7.65321e-015
rhumerus -42.8275 3.24544 -84.9703
rradius 51.2673
rwrist 1.32641
rhand -7.48381 -14.7317
rfingers 7.12502
rthumb 18.4055 -43.8809
lclavicle -4.00054e-014 7.65321e-015
lhumerus -36.5361 -8.93039 76.8553
lradius 51.13
lwrist 4.08437
lhand -1.73734 13.5898
lfingers 7.12502
lthumb 23.9253 42.1193
rfemur 9.86352 18.2208 24.1521
rtibia 13.3388
rfoot -20.8681 1.31841
rtoes -9.7768
lfemur -27.8881 -4.57172 -6.83646
ltibia 37.6205
lfoot -15.1347 -12.8087
ltoes -5.93702
463
root -11.0399 17.4723 -9.13987 -154.859 80.4034 -156.889
lowerback 17.1649 2.44224 4.20948
upperback 5.31872 4.22606 -0.307185
thorax -3.58087 2.23656 -3.53986
lowerneck 4.22867 16.0114 14.3583
upperneck -6.44271 21.6967 -17.8287
head 0.989529 11.1365 -6.99018
rclavicle -2.03506e-014 -1.08338e-014
rhumerus -42.753 3.29709 -84.8355
rradius 51.2363
rwrist 1.44732
rhand -7.42481 -14.7632
rfingers 7.12502
rthumb 18.4622 -43.9071
lclavicle -2.03506e-014 -1.08338e-014
lhumerus -36.3725 -9.15034 77.0086
lradius 51.5873
lwrist 4.29714
lhand -1.90185 13.5543
lfingers 7.12502
lthumb 23.7675 42.1043
rfemur 10.0727 17.9638 24.4652
rtibia 13.5765
rfoot -20.9612 1.02812
rtoes -9.682
lfemur -27.627 -4.86547 -6.7358
ltibia 37.2404
lfoot -14.7585 -13.0104
ltoes -6.02001
